<svg width="90" height="110" viewBox="0 0 90 110" fill="none" xmlns="http://www.w3.org/2000/svg">
<rect width="2" height="40" transform="matrix(-1 0 0 1 46 0)" fill="#484F75"/>
<rect width="2" height="40" transform="matrix(-1 0 0 1 46 70)" fill="#484F75"/>
<rect width="2" height="30" transform="matrix(0 -1 -1 0 30 56)" fill="#484F75"/>
<rect width="2" height="30" transform="matrix(0 -1 -1 0 90 56)" fill="#484F75"/>
<rect width="2" height="20" transform="matrix(0.707107 0.707107 0.707107 -0.707107 54.8995 43.6865)" fill="#484F75"/>
<rect width="2" height="20" transform="matrix(0.707107 0.707107 0.707107 -0.707107 19.5442 79.0415)" fill="#484F75"/>
<rect x="35.1005" y="43.6865" width="2" height="20" transform="rotate(135 35.1005 43.6865)" fill="#484F75"/>
<rect x="70.4558" y="79.0415" width="2" height="20" transform="rotate(135 70.4558 79.0415)" fill="#484F75"/>
</svg>
