<svg width="202" height="62" viewBox="0 0 202 62" fill="none" xmlns="http://www.w3.org/2000/svg">
<mask id="path-1-outside-1_577_368" maskUnits="userSpaceOnUse" x="0" y="0" width="202" height="62" fill="black">
<rect fill="white" width="202" height="62"/>
<path d="M5.12789 60.7462C3.52407 61.029 2.1481 60.7102 1 59.7897L1.82526 57.7958C2.74481 58.5743 3.76197 58.8652 4.87674 58.6687C5.94835 58.4797 6.78562 57.9894 7.38855 57.1977C7.99154 56.3986 8.29846 55.3784 8.30929 54.1369L8.41722 41.7698L10.6072 41.3837L10.4938 54.3752C10.4788 56.0913 9.9961 57.5108 9.04559 58.6336C8.10235 59.7478 6.79644 60.452 5.12789 60.7462ZM21.8559 57.7966C19.7559 58.1669 18.1786 57.8763 17.1241 56.9247C16.0696 55.9732 15.5522 54.3692 15.5719 52.1126L15.6734 40.4904L17.8633 40.1042L17.7668 51.1678C17.7514 52.9278 18.0781 54.1717 18.7467 54.8996C19.4227 55.6189 20.4654 55.8543 21.8751 55.6058C23.2847 55.3572 24.3312 54.7534 25.0146 53.7944C25.7052 52.8268 26.0582 51.463 26.0736 49.7031L26.1701 38.6395L28.3709 38.2514L28.2695 49.8737C28.2498 52.1302 27.7028 53.922 26.6284 55.2489C25.554 56.5758 23.9632 57.425 21.8559 57.7966ZM33.4634 55.3999L33.6211 37.3257L35.8111 36.9395L35.6705 53.053L42.823 51.7918L42.8059 53.7526L33.4634 55.3999ZM46.5271 53.0964L46.6848 35.0222L48.8748 34.6361L48.7171 52.7103L46.5271 53.0964ZM52.3617 52.0676L59.5641 32.7512L61.603 32.3917L68.4899 49.2238L66.1273 49.6404L64.1991 44.7196L56.7445 46.034L54.7135 51.6529L52.3617 52.0676ZM57.506 43.942L63.4718 42.89L60.5522 35.541L57.506 43.942ZM81.8276 47.222C80.9358 47.3792 80.1421 47.3952 79.4467 47.2699C78.7513 47.1373 78.1535 46.9329 77.6532 46.6565C77.1529 46.3801 76.7425 46.0952 76.4219 45.8017C76.1014 45.501 75.8665 45.2617 75.7173 45.0838L76.9299 43.1419C77.0935 43.3173 77.3142 43.5408 77.5918 43.8127C77.8695 44.0846 78.2119 44.345 78.6191 44.594C79.0262 44.8431 79.5021 45.0289 80.0468 45.1516C80.5915 45.2743 81.2091 45.2748 81.8995 45.1531C82.554 45.0377 83.1483 44.8162 83.6826 44.4887C84.2168 44.1612 84.6442 43.7395 84.9647 43.2236C85.2923 42.7065 85.4591 42.1083 85.465 41.4292C85.4701 40.8522 85.3593 40.3833 85.1326 40.0222C84.906 39.6538 84.5891 39.3597 84.1817 39.1399C83.7743 38.9201 83.2983 38.7379 82.7538 38.5932C82.2094 38.4413 81.6218 38.297 80.9911 38.1603C80.5468 38.0564 80.0955 37.9245 79.6373 37.7647C79.1792 37.5975 78.7575 37.373 78.3722 37.0909C77.9869 36.8016 77.6778 36.4332 77.4447 35.9857C77.2116 35.5383 77.098 34.9823 77.1038 34.3178C77.1097 33.6459 77.2411 32.9884 77.498 32.3452C77.755 31.702 78.1156 31.1097 78.5799 30.5685C79.0443 30.02 79.5941 29.5585 80.2293 29.184C80.8717 28.8009 81.5813 28.5409 82.358 28.4039C83.0485 28.2822 83.6984 28.277 84.3078 28.3883C84.9244 28.4983 85.4721 28.6824 85.951 28.9407C86.43 29.1916 86.8116 29.478 87.0961 29.7997L86.057 31.6125C85.8224 31.3404 85.5229 31.0979 85.1585 30.8851C84.7942 30.6649 84.3755 30.5091 83.9023 30.4175C83.4292 30.3259 82.9193 30.3283 82.3727 30.4247C81.7039 30.5427 81.1344 30.7853 80.6645 31.1525C80.2018 31.5112 79.8462 31.9348 79.5978 32.4234C79.3494 32.9119 79.223 33.4082 79.2186 33.9121C79.2146 34.3648 79.3012 34.7324 79.4782 35.0147C79.6625 35.2957 79.9083 35.5185 80.2156 35.6831C80.523 35.8476 80.8701 35.9796 81.257 36.0791C81.6439 36.1786 82.0417 36.2689 82.4503 36.35C83.1813 36.5127 83.8727 36.6934 84.5244 36.892C85.1762 37.0833 85.7484 37.3434 86.2411 37.6721C86.7337 37.9936 87.1178 38.418 87.3933 38.9455C87.6759 39.4717 87.8137 40.1437 87.8065 40.9616C87.7969 42.0643 87.5298 43.052 87.0051 43.9247C86.4877 44.7888 85.7813 45.504 84.886 46.0702C83.9906 46.6364 82.9711 47.0203 81.8276 47.222ZM92.0602 45.0677L92.218 26.9935L94.408 26.6073L94.3378 34.6476L103.141 33.0954L103.211 25.0551L105.401 24.669L105.243 42.7432L103.053 43.1293L103.124 35.0452L94.3208 36.5974L94.2502 44.6815L92.0602 45.0677ZM118.589 40.7399C117.345 40.9593 116.182 40.9238 115.1 40.6333C114.018 40.3428 113.071 39.8426 112.259 39.1328C111.446 38.4156 110.811 37.5323 110.354 36.4828C109.903 35.4248 109.684 34.2458 109.695 32.9459C109.707 31.6387 109.947 30.3786 110.418 29.1655C110.895 27.9511 111.547 26.8445 112.375 25.8455C113.202 24.8392 114.161 23.9993 115.251 23.3259C116.341 22.6524 117.508 22.206 118.753 21.9866C119.997 21.7672 121.16 21.8027 122.242 22.0932C123.324 22.3837 124.271 22.8875 125.083 23.6047C125.895 24.3145 126.527 25.1948 126.977 26.2456C127.435 27.2951 127.658 28.4734 127.647 29.7806C127.635 31.0805 127.391 32.3412 126.913 33.5629C126.443 34.776 125.794 35.8857 124.967 36.8919C124.14 37.8909 123.181 38.7272 122.091 39.4006C121 40.0741 119.833 40.5205 118.589 40.7399ZM118.608 38.5929C119.543 38.4281 120.411 38.0927 121.212 37.5868C122.021 37.0796 122.727 36.4484 123.329 35.6932C123.939 34.9295 124.413 34.0803 124.752 33.1456C125.098 32.2024 125.275 31.2196 125.284 30.1972C125.293 29.1748 125.132 28.2553 124.802 27.4385C124.479 26.6132 124.018 25.9289 123.419 25.3855C122.828 24.8335 122.131 24.4459 121.329 24.2228C120.534 23.9985 119.669 23.9687 118.734 24.1336C117.799 24.2984 116.927 24.6344 116.118 25.1416C115.317 25.6475 114.611 26.2823 114.001 27.0461C113.399 27.8013 112.925 28.6505 112.579 29.5937C112.24 30.5284 112.067 31.5069 112.058 32.5293C112.049 33.5517 112.206 34.4755 112.529 35.3008C112.859 36.1175 113.32 36.8019 113.911 37.3539C114.51 37.8973 115.207 38.2812 116.002 38.5056C116.804 38.7287 117.673 38.7578 118.608 38.5929ZM131.947 38.0346L132.104 19.9604L137.153 19.0702C138.333 18.8622 139.352 18.8903 140.211 19.1544C141.071 19.4184 141.731 19.8999 142.192 20.5989C142.659 21.2893 142.889 22.1785 142.879 23.2666C142.871 24.216 142.68 25.0918 142.307 25.894C141.934 26.6963 141.403 27.3913 140.716 27.9792C140.036 28.5658 139.224 29.0152 138.281 29.3273L144.105 35.8908L141.321 36.3816L135.873 29.9816L134.201 30.2764L134.137 37.6485L131.947 38.0346ZM134.217 28.3814L136.483 27.9819C137.332 27.8322 138.063 27.5611 138.677 27.1685C139.29 26.7759 139.765 26.2876 140.1 25.7034C140.436 25.112 140.607 24.4512 140.613 23.7209C140.623 22.6328 140.267 21.8461 139.546 21.3607C138.832 20.8741 137.831 20.7443 136.544 20.9713L134.279 21.3708L134.217 28.3814ZM147.391 35.3113L147.549 17.2371L149.739 16.851L149.581 34.9252L147.391 35.3113ZM155.103 33.9515L155.261 15.8773L157.451 15.4912L166.323 28.2217L166.448 13.9047L168.638 13.5186L168.48 31.5928L166.29 31.9789L157.418 19.2594L157.293 33.5654L155.103 33.9515ZM174.003 30.6189L174.161 12.5447L178.433 11.7915C179.699 11.5683 180.873 11.591 181.955 11.8595C183.037 12.1281 183.98 12.6034 184.786 13.2853C185.599 13.9586 186.227 14.8067 186.67 15.8295C187.121 16.8437 187.341 17.9862 187.33 19.2569C187.319 20.5275 187.082 21.7505 186.619 22.9258C186.156 24.1011 185.511 25.1737 184.684 26.1434C183.865 27.1046 182.906 27.9116 181.809 28.5645C180.719 29.2087 179.541 29.6425 178.275 29.8657L174.003 30.6189ZM176.21 28.2391L178.077 27.9101C179.048 27.7389 179.952 27.4044 180.789 26.9068C181.627 26.4019 182.357 25.7772 182.981 25.0328C183.613 24.2798 184.105 23.4457 184.457 22.5304C184.81 21.6151 184.991 20.6573 184.999 19.6568C185.008 18.6563 184.844 17.7593 184.506 16.9658C184.168 16.1722 183.689 15.5129 183.069 14.9879C182.456 14.4617 181.734 14.0932 180.903 13.8824C180.072 13.6717 179.171 13.6519 178.2 13.8231L176.333 14.1522L176.21 28.2391ZM191.597 27.5167L191.755 9.44248L201 7.81227L200.983 9.77305L193.927 11.0171L193.874 17.0966L200.671 15.8982L200.654 17.848L193.857 19.0464L193.804 25.1697L200.859 23.9257L200.842 25.8865L191.597 27.5167ZM196.221 7.36428L195.246 6.7706L197.615 2L199.137 2.8691L196.221 7.36428Z"/>
</mask>
<path d="M5.12789 60.7462C3.52407 61.029 2.1481 60.7102 1 59.7897L1.82526 57.7958C2.74481 58.5743 3.76197 58.8652 4.87674 58.6687C5.94835 58.4797 6.78562 57.9894 7.38855 57.1977C7.99154 56.3986 8.29846 55.3784 8.30929 54.1369L8.41722 41.7698L10.6072 41.3837L10.4938 54.3752C10.4788 56.0913 9.9961 57.5108 9.04559 58.6336C8.10235 59.7478 6.79644 60.452 5.12789 60.7462ZM21.8559 57.7966C19.7559 58.1669 18.1786 57.8763 17.1241 56.9247C16.0696 55.9732 15.5522 54.3692 15.5719 52.1126L15.6734 40.4904L17.8633 40.1042L17.7668 51.1678C17.7514 52.9278 18.0781 54.1717 18.7467 54.8996C19.4227 55.6189 20.4654 55.8543 21.8751 55.6058C23.2847 55.3572 24.3312 54.7534 25.0146 53.7944C25.7052 52.8268 26.0582 51.463 26.0736 49.7031L26.1701 38.6395L28.3709 38.2514L28.2695 49.8737C28.2498 52.1302 27.7028 53.922 26.6284 55.2489C25.554 56.5758 23.9632 57.425 21.8559 57.7966ZM33.4634 55.3999L33.6211 37.3257L35.8111 36.9395L35.6705 53.053L42.823 51.7918L42.8059 53.7526L33.4634 55.3999ZM46.5271 53.0964L46.6848 35.0222L48.8748 34.6361L48.7171 52.7103L46.5271 53.0964ZM52.3617 52.0676L59.5641 32.7512L61.603 32.3917L68.4899 49.2238L66.1273 49.6404L64.1991 44.7196L56.7445 46.034L54.7135 51.6529L52.3617 52.0676ZM57.506 43.942L63.4718 42.89L60.5522 35.541L57.506 43.942ZM81.8276 47.222C80.9358 47.3792 80.1421 47.3952 79.4467 47.2699C78.7513 47.1373 78.1535 46.9329 77.6532 46.6565C77.1529 46.3801 76.7425 46.0952 76.4219 45.8017C76.1014 45.501 75.8665 45.2617 75.7173 45.0838L76.9299 43.1419C77.0935 43.3173 77.3142 43.5408 77.5918 43.8127C77.8695 44.0846 78.2119 44.345 78.6191 44.594C79.0262 44.8431 79.5021 45.0289 80.0468 45.1516C80.5915 45.2743 81.2091 45.2748 81.8995 45.1531C82.554 45.0377 83.1483 44.8162 83.6826 44.4887C84.2168 44.1612 84.6442 43.7395 84.9647 43.2236C85.2923 42.7065 85.4591 42.1083 85.465 41.4292C85.4701 40.8522 85.3593 40.3833 85.1326 40.0222C84.906 39.6538 84.5891 39.3597 84.1817 39.1399C83.7743 38.9201 83.2983 38.7379 82.7538 38.5932C82.2094 38.4413 81.6218 38.297 80.9911 38.1603C80.5468 38.0564 80.0955 37.9245 79.6373 37.7647C79.1792 37.5975 78.7575 37.373 78.3722 37.0909C77.9869 36.8016 77.6778 36.4332 77.4447 35.9857C77.2116 35.5383 77.098 34.9823 77.1038 34.3178C77.1097 33.6459 77.2411 32.9884 77.498 32.3452C77.755 31.702 78.1156 31.1097 78.5799 30.5685C79.0443 30.02 79.5941 29.5585 80.2293 29.184C80.8717 28.8009 81.5813 28.5409 82.358 28.4039C83.0485 28.2822 83.6984 28.277 84.3078 28.3883C84.9244 28.4983 85.4721 28.6824 85.951 28.9407C86.43 29.1916 86.8116 29.478 87.0961 29.7997L86.057 31.6125C85.8224 31.3404 85.5229 31.0979 85.1585 30.8851C84.7942 30.6649 84.3755 30.5091 83.9023 30.4175C83.4292 30.3259 82.9193 30.3283 82.3727 30.4247C81.7039 30.5427 81.1344 30.7853 80.6645 31.1525C80.2018 31.5112 79.8462 31.9348 79.5978 32.4234C79.3494 32.9119 79.223 33.4082 79.2186 33.9121C79.2146 34.3648 79.3012 34.7324 79.4782 35.0147C79.6625 35.2957 79.9083 35.5185 80.2156 35.6831C80.523 35.8476 80.8701 35.9796 81.257 36.0791C81.6439 36.1786 82.0417 36.2689 82.4503 36.35C83.1813 36.5127 83.8727 36.6934 84.5244 36.892C85.1762 37.0833 85.7484 37.3434 86.2411 37.6721C86.7337 37.9936 87.1178 38.418 87.3933 38.9455C87.6759 39.4717 87.8137 40.1437 87.8065 40.9616C87.7969 42.0643 87.5298 43.052 87.0051 43.9247C86.4877 44.7888 85.7813 45.504 84.886 46.0702C83.9906 46.6364 82.9711 47.0203 81.8276 47.222ZM92.0602 45.0677L92.218 26.9935L94.408 26.6073L94.3378 34.6476L103.141 33.0954L103.211 25.0551L105.401 24.669L105.243 42.7432L103.053 43.1293L103.124 35.0452L94.3208 36.5974L94.2502 44.6815L92.0602 45.0677ZM118.589 40.7399C117.345 40.9593 116.182 40.9238 115.1 40.6333C114.018 40.3428 113.071 39.8426 112.259 39.1328C111.446 38.4156 110.811 37.5323 110.354 36.4828C109.903 35.4248 109.684 34.2458 109.695 32.9459C109.707 31.6387 109.947 30.3786 110.418 29.1655C110.895 27.9511 111.547 26.8445 112.375 25.8455C113.202 24.8392 114.161 23.9993 115.251 23.3259C116.341 22.6524 117.508 22.206 118.753 21.9866C119.997 21.7672 121.16 21.8027 122.242 22.0932C123.324 22.3837 124.271 22.8875 125.083 23.6047C125.895 24.3145 126.527 25.1948 126.977 26.2456C127.435 27.2951 127.658 28.4734 127.647 29.7806C127.635 31.0805 127.391 32.3412 126.913 33.5629C126.443 34.776 125.794 35.8857 124.967 36.8919C124.14 37.8909 123.181 38.7272 122.091 39.4006C121 40.0741 119.833 40.5205 118.589 40.7399ZM118.608 38.5929C119.543 38.4281 120.411 38.0927 121.212 37.5868C122.021 37.0796 122.727 36.4484 123.329 35.6932C123.939 34.9295 124.413 34.0803 124.752 33.1456C125.098 32.2024 125.275 31.2196 125.284 30.1972C125.293 29.1748 125.132 28.2553 124.802 27.4385C124.479 26.6132 124.018 25.9289 123.419 25.3855C122.828 24.8335 122.131 24.4459 121.329 24.2228C120.534 23.9985 119.669 23.9687 118.734 24.1336C117.799 24.2984 116.927 24.6344 116.118 25.1416C115.317 25.6475 114.611 26.2823 114.001 27.0461C113.399 27.8013 112.925 28.6505 112.579 29.5937C112.24 30.5284 112.067 31.5069 112.058 32.5293C112.049 33.5517 112.206 34.4755 112.529 35.3008C112.859 36.1175 113.32 36.8019 113.911 37.3539C114.51 37.8973 115.207 38.2812 116.002 38.5056C116.804 38.7287 117.673 38.7578 118.608 38.5929ZM131.947 38.0346L132.104 19.9604L137.153 19.0702C138.333 18.8622 139.352 18.8903 140.211 19.1544C141.071 19.4184 141.731 19.8999 142.192 20.5989C142.659 21.2893 142.889 22.1785 142.879 23.2666C142.871 24.216 142.68 25.0918 142.307 25.894C141.934 26.6963 141.403 27.3913 140.716 27.9792C140.036 28.5658 139.224 29.0152 138.281 29.3273L144.105 35.8908L141.321 36.3816L135.873 29.9816L134.201 30.2764L134.137 37.6485L131.947 38.0346ZM134.217 28.3814L136.483 27.9819C137.332 27.8322 138.063 27.5611 138.677 27.1685C139.29 26.7759 139.765 26.2876 140.1 25.7034C140.436 25.112 140.607 24.4512 140.613 23.7209C140.623 22.6328 140.267 21.8461 139.546 21.3607C138.832 20.8741 137.831 20.7443 136.544 20.9713L134.279 21.3708L134.217 28.3814ZM147.391 35.3113L147.549 17.2371L149.739 16.851L149.581 34.9252L147.391 35.3113ZM155.103 33.9515L155.261 15.8773L157.451 15.4912L166.323 28.2217L166.448 13.9047L168.638 13.5186L168.48 31.5928L166.29 31.9789L157.418 19.2594L157.293 33.5654L155.103 33.9515ZM174.003 30.6189L174.161 12.5447L178.433 11.7915C179.699 11.5683 180.873 11.591 181.955 11.8595C183.037 12.1281 183.98 12.6034 184.786 13.2853C185.599 13.9586 186.227 14.8067 186.67 15.8295C187.121 16.8437 187.341 17.9862 187.33 19.2569C187.319 20.5275 187.082 21.7505 186.619 22.9258C186.156 24.1011 185.511 25.1737 184.684 26.1434C183.865 27.1046 182.906 27.9116 181.809 28.5645C180.719 29.2087 179.541 29.6425 178.275 29.8657L174.003 30.6189ZM176.21 28.2391L178.077 27.9101C179.048 27.7389 179.952 27.4044 180.789 26.9068C181.627 26.4019 182.357 25.7772 182.981 25.0328C183.613 24.2798 184.105 23.4457 184.457 22.5304C184.81 21.6151 184.991 20.6573 184.999 19.6568C185.008 18.6563 184.844 17.7593 184.506 16.9658C184.168 16.1722 183.689 15.5129 183.069 14.9879C182.456 14.4617 181.734 14.0932 180.903 13.8824C180.072 13.6717 179.171 13.6519 178.2 13.8231L176.333 14.1522L176.21 28.2391ZM191.597 27.5167L191.755 9.44248L201 7.81227L200.983 9.77305L193.927 11.0171L193.874 17.0966L200.671 15.8982L200.654 17.848L193.857 19.0464L193.804 25.1697L200.859 23.9257L200.842 25.8865L191.597 27.5167ZM196.221 7.36428L195.246 6.7706L197.615 2L199.137 2.8691L196.221 7.36428Z" stroke="#B6BCD3" stroke-width="1.5" mask="url(#path-1-outside-1_577_368)"/>
</svg>
